# xmcd CD database file
#
# Track frame offsets:
#	150
#	21927
#	40005
#	59462
#	74058
#	93024
#	114304
#	136523
#	157257
#	174071
#
# Disc length: 2553 seconds
#
# Revision: 0
# Processed by: cddbd v1.5.1PL0 Copyright (c) Steve Scherf et al.
# Submitted via: CDex 1.51
#
DISCID=7a09f70a
DTITLE=Various Artist - Alabale Con Merengue
DYEAR=2001
DGENRE=Christian Spanish
TTITLE0=Richie Ray and Bobby Cruz - Para Sentirte Alegre --
TTITLE1=Giovanni Ríos - Que Bueno, Que Bonito --
TTITLE2=Ricardo Rodríguez - Pon Aceite, Midley --
TTITLE3=Keyla Jiménez - El Más Grande Es El Señor --
TTITLE4=Luigi Castro - Al Rey De Reyes --
TTITLE5=Yanrymond - Faltan 5 Para Las 12, Llegó Jesús --
TTITLE6=95 Norte - Gloria --
TTITLE7=Hermanas Meléndez - Echale Leña Al Fuego Midley --
TTITLE8=Yanrymond - El Llamado --
TTITLE9=Kantares De Luz - No Te Equivoques Mono --
EXTD=YEAR: 2001
EXTT0=
EXTT1=
EXTT2=
EXTT3=
EXTT4=
EXTT5=
EXTT6=
EXTT7=
EXTT8=
EXTT9=
PLAYORDER=
